Patient4_TMGait_0pt4_03_right_32_EMG.mot
version=1
nRows=13
nColumns=33
inDegrees=no
endheader
time	1LAddLong	2LGlutMax	3LGlutMed	4LIliopsoas	5LSemiMemb	6LBicFemLong	7LRecFem	8LVastMed	9LVastLat	10LGasMed	11LTibAnt	12lTibPost	13LPeroneusLong	14LSol	15LExtDigLong	16LFlexDigLong	17RAddLong	18RGlutMax	19RGlutMed	20RIliopsoas	21RSemiMemb	22RBicFemLong	23RRecFem	24RVastMed	25RVastLat	26RGasMed	27RTibAnt	28RTibPost	29RPeroneusLong	30RSol	31RExtDigLong	32RFlexDigLong
41.54	-0.00351	-0.04776	-0.029144	-0.001221	0.030823	0.038452	0.06958	-0.017548	0.044556	-0.04837	0.36072	0.00473	0.13657	0.07309	0.44556	0.028381	0.015411	-0.018768	0.28381	0.10437	0.044861	-0.15595	0.028076	-0.039825	-0.030823	0.001984	0.20081	-0.000763	0.005646	0.002289	-0.002899	-0.011902
41.541	-0.003815	-0.023956	-0.082245	0.003815	0.003662	0.018463	0.026245	-0.01297	-0.04425	-0.021667	0.3125	-0.001526	0.035706	0.039825	0.14908	0.018768	0.005035	-0.069122	0.014496	0.092773	0.038757	-0.15839	0.06012	-0.035248	-0.028534	-0.007324	0.242	-0.000763	-0.007324	0.044708	0.001068	-0.009155
41.542	-0.003357	-0.021057	-0.10803	0.007782	-0.025177	0.01709	0.040283	0.049133	-0.053558	-0.039368	-0.074158	0.002594	0.08667	0.038757	-0.37445	-0.007324	0.007477	-0.084229	0.056	0.031586	0.026398	-0.15793	0.013428	-0.052032	-0.015259	-0.008698	0.16586	0.000916	-0.076599	0.040283	-0.004883	-0.00885
41.543	0.001373	0.000153	-0.029907	-0.013428	-0.068512	0.026398	0.096588	0.003967	-0.028534	-0.018158	0.029144	0.005493	0.075378	0.045471	-0.36057	0.001068	-0.001831	-0.060577	0.36499	0.058289	0.032349	-0.15823	0.029144	-0.042419	0.00412	-0.003967	0.028534	0.000916	-0.088959	0.019226	0.002747	-0.007935
41.544	0.002289	0.012512	0.07782	0.015259	-0.079498	0.017242	0.11856	-0.001526	-0.015564	-0.00824	0.06134	0.002441	0.050201	0.005341	-0.35034	-0.019836	-0.004425	-0.088654	0.60501	-0.025482	0.017853	-0.17593	0.011597	-0.040436	-0.003052	-0.009003	0.051575	0.001373	-0.12207	0.04715	0.002289	-0.018005
41.545	0.015869	0.03952	0.070953	0.028839	-0.006866	-0.010223	0.065308	0.011749	-0.012512	0.001831	-0.078125	-0.000305	0.036926	-0.13763	-0.336	-0.020447	-0.012665	-0.1149	0.45548	-0.04303	0.015869	-0.17746	0.028076	-0.032501	-0.001068	-0.013428	0.34546	-0.002136	-0.11597	0.043488	-0.002289	-0.010376
41.546	0.01709	0.079651	-0.041962	0.021973	0.047607	0.000458	-0.049286	0.015259	0.019379	0.010071	-0.23529	0.00473	0.049591	-0.12863	0.035553	-0.00824	0.010986	-0.11231	0.33722	-0.045013	0.00885	-0.18402	0.071869	-0.023651	-0.003357	-0.007935	0.056152	0.002441	-0.06012	0.06546	-0.003662	-0.013733
41.547	0.023041	0.058899	0	0.01297	0.06012	-0.007019	-0.13687	0.015717	0.057831	0.005798	-0.24628	0.006409	0.043182	-0.02655	-0.15472	-0.004883	0.013428	-0.1149	0.063782	-0.076447	0.014954	-0.19714	0.059052	-0.044708	0.002899	-0.009766	-0.16098	-0.001068	-0.086517	0.080872	-0.00351	-0.004578
41.548	0.008087	0.045471	-0.001526	0.005798	0.029602	-0.01236	-0.14206	0.005188	0.018616	0.011749	-0.15701	0.002747	0.066223	-0.034027	-0.112	0.003662	-0.000763	-0.12054	0.098114	0.063934	0.019073	-0.21515	0.079956	-0.040283	0.001221	-0.008698	-0.024872	-0.003052	-0.088043	0.071106	-0.00351	-0.004272
41.549	0.010071	0.079193	0.018921	0.000916	0.018005	-0.007935	-0.14648	0.006104	0.051422	-0.014191	-0.077209	0.001831	0.062866	-0.083618	-0.13458	0.005341	-0.0177	-0.040131	0.23697	0.19012	0.044556	-0.21316	0.03418	-0.039825	0.031738	-0.014648	-0.016479	0.00473	0.010681	0.054016	-0.000305	0.002747
41.55	0.016479	0.11124	0.094299	-0.006714	0.004578	-0.006104	-0.18799	-0.010834	0.20935	0.012512	-0.069122	0.003967	0.034637	-0.077209	-0.042114	0.009308	-0.020447	-0.028534	0.16281	0.20584	0.023193	-0.26627	0.070343	-0.019684	0.025635	-0.003815	-0.081329	-0.000305	0.15274	0.032654	0.000305	-0.005341
41.551	0.009003	0.13534	0.04303	-0.001678	0.007477	0.007782	-0.18646	-0.00946	0.13275	0.003967	-0.055237	0.00061	0.019989	-0.052948	0.044556	0.003357	-0.022583	-0.033722	0.25055	0.088348	0.002747	-0.2771	0.074463	-0.091095	0.003815	0.001373	0.17731	0.000458	-0.015411	-0.029602	-0.000305	-0.001526
41.552	-0.003967	0.15152	0.002747	-0.007324	0.009155	0.027924	-0.10132	-0.006561	-0.080414	-0.012817	-0.043182	0.007477	0.043793	-0.036926	0.055084	0.001831	-0.014038	-0.006561	0.23941	0.045471	0.003662	-0.31891	0.10086	-0.084229	-0.015106	-0.00061	0.18814	-0.001373	-0.15549	-0.020599	-0.005493	-0.003052
